<?xml version="1.0" encoding="UTF-8"?>
<svg xmlns="http://www.w3.org/2000/svg" width="96" height="96" viewBox="0 0 96 96"><g transform="translate(-8.23187 -7.65216) rotate(0) scale(1.15942 1.15942)"><path d="M 17 67 L 60 18 Q 65 14 71 22 L 32 78 Q 21 83 17 67 Z" fill="#AD8056" stroke="#405347" stroke-width="1.8" stroke-linecap="round" stroke-linejoin="round"/><path d="M 15 72 A 10 7 0 1 0 35 72 A 10 7 0 1 0 15 72 Z" fill="#FFF3DA" stroke="#405347" stroke-width="1.8" stroke-linecap="round" stroke-linejoin="round"/><path d="M 31 61 l -6 -2 m 3 5 l -5 3" fill="none" stroke="#E3CDA5" stroke-width="0.8" stroke-linecap="round" stroke-linejoin="round"/><path d="M 35 56 l -6 -2 m 3 5 l -5 3" fill="none" stroke="#E3CDA5" stroke-width="0.8" stroke-linecap="round" stroke-linejoin="round"/><path d="M 39 51 l -6 -2 m 3 5 l -5 3" fill="none" stroke="#E3CDA5" stroke-width="0.8" stroke-linecap="round" stroke-linejoin="round"/><path d="M 43 46 l -6 -2 m 3 5 l -5 3" fill="none" stroke="#E3CDA5" stroke-width="0.8" stroke-linecap="round" stroke-linejoin="round"/><path d="M 47 41 l -6 -2 m 3 5 l -5 3" fill="none" stroke="#E3CDA5" stroke-width="0.8" stroke-linecap="round" stroke-linejoin="round"/><path d="M 51 36 l -6 -2 m 3 5 l -5 3" fill="none" stroke="#E3CDA5" stroke-width="0.8" stroke-linecap="round" stroke-linejoin="round"/><path d="M 55 31 l -6 -2 m 3 5 l -5 3" fill="none" stroke="#E3CDA5" stroke-width="0.8" stroke-linecap="round" stroke-linejoin="round"/><path d="M 59 26 l -6 -2 m 3 5 l -5 3" fill="none" stroke="#E3CDA5" stroke-width="0.8" stroke-linecap="round" stroke-linejoin="round"/><g transform="translate(0 0) rotate(0) scale(1 1)"><path d="M 50 69 A 16 9 0 1 0 82 69 A 16 9 0 1 0 50 69 Z" fill="#FFF3DA" stroke="#405347" stroke-width="1.8" stroke-linecap="round" stroke-linejoin="round"/><path d="M 50 66 A 16 9 0 1 0 82 66 A 16 9 0 1 0 50 66 Z" fill="#FFF3DA" stroke="#405347" stroke-width="1.8" stroke-linecap="round" stroke-linejoin="round"/></g></g></svg>
