<?xml version="1.0" encoding="UTF-8"?>
<svg xmlns="http://www.w3.org/2000/svg" width="96" height="96" viewBox="0 0 96 96"><g transform="translate(1.2672 1.97742) rotate(0) scale(1.13636 1.13636)"><g transform="translate(-3 -3) rotate(0) scale(0.91 0.91)"><path d="M 20 46 C 24 23 54 19 73 35 C 89 52 74 80 53 82 C 29 87 10 67 20 46 Z" fill="#C5AE79" stroke="#203F36" stroke-width="2.3" stroke-linecap="round" stroke-linejoin="round"/><path d="M 25 43 Q 29 30 39 32 Q 31 38 30 51 Q 22 53 25 43 Z" fill="#E9D9AA" stroke="none" stroke-width="2.3" stroke-linecap="round" stroke-linejoin="round"/><path d="M 55.25 53 A 0.75 0.75 0 1 0 56.75 53 A 0.75 0.75 0 1 0 55.25 53 Z" fill="#9B7758" stroke="none" stroke-width="0" stroke-linecap="round" stroke-linejoin="round"/><path d="M 37.664 61.781 A 0.75 0.75 0 1 0 39.164 61.781 A 0.75 0.75 0 1 0 37.664 61.781 Z" fill="#9B7758" stroke="none" stroke-width="0" stroke-linecap="round" stroke-linejoin="round"/><path d="M 48.825 35.069 A 0.75 0.75 0 1 0 50.325 35.069 A 0.75 0.75 0 1 0 48.825 35.069 Z" fill="#9B7758" stroke="none" stroke-width="0" stroke-linecap="round" stroke-linejoin="round"/><path d="M 61.242 71.254 A 0.75 0.75 0 1 0 62.742 71.254 A 0.75 0.75 0 1 0 61.242 71.254 Z" fill="#9B7758" stroke="none" stroke-width="0" stroke-linecap="round" stroke-linejoin="round"/><path d="M 39.372 51.605 A 0.75 0.75 0 1 0 40.872 51.605 A 0.75 0.75 0 1 0 39.372 51.605 Z" fill="#9B7758" stroke="none" stroke-width="0" stroke-linecap="round" stroke-linejoin="round"/><path d="M 58.22 46.025 A 0.75 0.75 0 1 0 59.72 46.025 A 0.75 0.75 0 1 0 58.22 46.025 Z" fill="#9B7758" stroke="none" stroke-width="0" stroke-linecap="round" stroke-linejoin="round"/><path d="M 42.573 70.382 A 0.75 0.75 0 1 0 44.073 70.382 A 0.75 0.75 0 1 0 42.573 70.382 Z" fill="#9B7758" stroke="none" stroke-width="0" stroke-linecap="round" stroke-linejoin="round"/><path d="M 36.654 32.586 A 0.75 0.75 0 1 0 38.154 32.586 A 0.75 0.75 0 1 0 36.654 32.586 Z" fill="#9B7758" stroke="none" stroke-width="0" stroke-linecap="round" stroke-linejoin="round"/><path d="M 54.764 55.747 A 0.75 0.75 0 1 0 56.264 55.747 A 0.75 0.75 0 1 0 54.764 55.747 Z" fill="#9B7758" stroke="none" stroke-width="0" stroke-linecap="round" stroke-linejoin="round"/><path d="M 35.232 57.956 A 0.75 0.75 0 1 0 36.732 57.956 A 0.75 0.75 0 1 0 35.232 57.956 Z" fill="#9B7758" stroke="none" stroke-width="0" stroke-linecap="round" stroke-linejoin="round"/><path d="M 54.885 36.7 A 0.75 0.75 0 1 0 56.385 36.7 A 0.75 0.75 0 1 0 54.885 36.7 Z" fill="#9B7758" stroke="none" stroke-width="0" stroke-linecap="round" stroke-linejoin="round"/><path d="M 54.125 74.949 A 0.75 0.75 0 1 0 55.625 74.949 A 0.75 0.75 0 1 0 54.125 74.949 Z" fill="#9B7758" stroke="none" stroke-width="0" stroke-linecap="round" stroke-linejoin="round"/><path d="M 40.33 48.986 A 0.75 0.75 0 1 0 41.83 48.986 A 0.75 0.75 0 1 0 40.33 48.986 Z" fill="#9B7758" stroke="none" stroke-width="0" stroke-linecap="round" stroke-linejoin="round"/><path d="M 59.948 50.215 A 0.75 0.75 0 1 0 61.448 50.215 A 0.75 0.75 0 1 0 59.948 50.215 Z" fill="#9B7758" stroke="none" stroke-width="0" stroke-linecap="round" stroke-linejoin="round"/><path d="M 36.89 67.72 A 0.75 0.75 0 1 0 38.39 67.72 A 0.75 0.75 0 1 0 36.89 67.72 Z" fill="#9B7758" stroke="none" stroke-width="0" stroke-linecap="round" stroke-linejoin="round"/><path d="M 44.307 30.189 A 0.75 0.75 0 1 0 45.807 30.189 A 0.75 0.75 0 1 0 44.307 30.189 Z" fill="#9B7758" stroke="none" stroke-width="0" stroke-linecap="round" stroke-linejoin="round"/><path d="M 53.364 58.159 A 0.75 0.75 0 1 0 54.864 58.159 A 0.75 0.75 0 1 0 53.364 58.159 Z" fill="#9B7758" stroke="none" stroke-width="0" stroke-linecap="round" stroke-linejoin="round"/><path d="M 34.261 53.529 A 0.75 0.75 0 1 0 35.761 53.529 A 0.75 0.75 0 1 0 34.261 53.529 Z" fill="#9B7758" stroke="none" stroke-width="0" stroke-linecap="round" stroke-linejoin="round"/><path d="M 60.017 40.312 A 0.75 0.75 0 1 0 61.517 40.312 A 0.75 0.75 0 1 0 60.017 40.312 Z" fill="#9B7758" stroke="none" stroke-width="0" stroke-linecap="round" stroke-linejoin="round"/><path d="M 46.172 75.975 A 0.75 0.75 0 1 0 47.672 75.975 A 0.75 0.75 0 1 0 46.172 75.975 Z" fill="#9B7758" stroke="none" stroke-width="0" stroke-linecap="round" stroke-linejoin="round"/><path d="M 42.129 46.854 A 0.75 0.75 0 1 0 43.629 46.854 A 0.75 0.75 0 1 0 42.129 46.854 Z" fill="#9B7758" stroke="none" stroke-width="0" stroke-linecap="round" stroke-linejoin="round"/><path d="M 60.133 54.743 A 0.75 0.75 0 1 0 61.633 54.743 A 0.75 0.75 0 1 0 60.133 54.743 Z" fill="#9B7758" stroke="none" stroke-width="0" stroke-linecap="round" stroke-linejoin="round"/><path d="M 32.466 63.268 A 0.75 0.75 0 1 0 33.966 63.268 A 0.75 0.75 0 1 0 32.466 63.268 Z" fill="#9B7758" stroke="none" stroke-width="0" stroke-linecap="round" stroke-linejoin="round"/><path d="M 52.317 30.565 A 0.75 0.75 0 1 0 53.817 30.565 A 0.75 0.75 0 1 0 52.317 30.565 Z" fill="#9B7758" stroke="none" stroke-width="0" stroke-linecap="round" stroke-linejoin="round"/><path d="M 51.221 59.945 A 0.75 0.75 0 1 0 52.721 59.945 A 0.75 0.75 0 1 0 51.221 59.945 Z" fill="#9B7758" stroke="none" stroke-width="0" stroke-linecap="round" stroke-linejoin="round"/><path d="M 34.869 49.037 A 0.75 0.75 0 1 0 36.369 49.037 A 0.75 0.75 0 1 0 34.869 49.037 Z" fill="#9B7758" stroke="none" stroke-width="0" stroke-linecap="round" stroke-linejoin="round"/><path d="M 63.597 45.466 A 0.75 0.75 0 1 0 65.097 45.466 A 0.75 0.75 0 1 0 63.597 45.466 Z" fill="#9B7758" stroke="none" stroke-width="0" stroke-linecap="round" stroke-linejoin="round"/><path d="M 48 29 q -3 -12 5 -16" fill="none" stroke="#9B7758" stroke-width="2.6" stroke-linecap="round" stroke-linejoin="round"/><g transform="translate(51 24) rotate(61) scale(0.48148148148148145 0.5277777777777778)"><path d="M 0 0 C -18 -8 -16 -27 0 -36 C 17 -27 17 -9 0 0 Z" fill="#7D9C67" stroke="#203F36" stroke-width="1.8" stroke-linecap="round" stroke-linejoin="round"/><path d="M 0 -2 Q 1 -16 0 -31" fill="none" stroke="#4E7053" stroke-width="1.1" stroke-linecap="round" stroke-linejoin="round"/><path d="M 0 -8 Q -5 -9 -8 -14 M 0 -8 Q 5 -9 8 -14" fill="none" stroke="#4E7053" stroke-width="0.75" stroke-linecap="round" stroke-linejoin="round"/><path d="M 0 -15 Q -5 -16 -8 -21 M 0 -15 Q 5 -16 8 -21" fill="none" stroke="#4E7053" stroke-width="0.75" stroke-linecap="round" stroke-linejoin="round"/><path d="M 0 -22 Q -5 -23 -8 -28 M 0 -22 Q 5 -23 8 -28" fill="none" stroke="#4E7053" stroke-width="0.75" stroke-linecap="round" stroke-linejoin="round"/></g></g></g></svg>
