<?xml version="1.0" encoding="UTF-8"?>
<svg xmlns="http://www.w3.org/2000/svg" width="96" height="96" viewBox="0 0 96 96"><g transform="translate(2.34803 -3.04492) rotate(0) scale(1.00334 1.00334)"><path d="M 34 33 L 56 32 Q 58 51 67 68 Q 76 88 44 87 Q 22 88 28 67 Q 36 46 34 33 Z" fill="#F5EFDC" stroke="#203F36" stroke-width="2.3" stroke-linecap="round" stroke-linejoin="round"/><path d="M 52 38 L 57 38 Q 58 57 65 73 Q 66 83 55 84 L 51 82 Q 59 73 52 57 Z" fill="#D9CFAD" stroke="none" stroke-width="2.3" stroke-linecap="round" stroke-linejoin="round"/><path d="M 37 47 Q 33 60 35 75 M 44 48 L 41 77 M 49 64 L 48 79" fill="none" stroke="#9B7758" stroke-width="0.7" stroke-linecap="round" stroke-linejoin="round"/><path d="M 22 29 A 23 10 0 1 0 68 29 A 23 10 0 1 0 22 29 Z" fill="#9B7758" stroke="#203F36" stroke-width="2.3" stroke-linecap="round" stroke-linejoin="round"/><path d="M 24 28 Q 30 13 47 15 Q 63 15 68 28 Q 51 39 24 28 Z" fill="#AC9579" stroke="#203F36" stroke-width="2.3" stroke-linecap="round" stroke-linejoin="round"/><path d="M 32 24 Q 42 18 52 21" fill="none" stroke="#D9CFAD" stroke-width="1.1" stroke-linecap="round" stroke-linejoin="round"/></g></svg>
