<?xml version="1.0" encoding="UTF-8"?>
<svg xmlns="http://www.w3.org/2000/svg" width="96" height="96" viewBox="0 0 96 96"><g transform="translate(-7.26318 -10.64664) rotate(0) scale(1.12782 1.12782)"><path d="M 18 51 L 65 23 L 81 49 L 80 79 L 17 81 Z" fill="#D7AD5D" stroke="#203F36" stroke-width="2.3" stroke-linecap="round" stroke-linejoin="round"/><path d="M 18 51 L 65 23 L 81 49 Z" fill="#F0D68B" stroke="#203F36" stroke-width="2.3" stroke-linecap="round" stroke-linejoin="round"/><path d="M 18 51 L 81 49" fill="none" stroke="#203F36" stroke-width="1.5" stroke-linecap="round" stroke-linejoin="round"/><path d="M 25 63 A 5 4 0 1 0 35 63 A 5 4 0 1 0 25 63 Z" fill="#C19F59" stroke="#203F36" stroke-width="1.2" stroke-linecap="round" stroke-linejoin="round"/><path d="M 47 57 A 4 3 0 1 0 55 57 A 4 3 0 1 0 47 57 Z" fill="#C19F59" stroke="#203F36" stroke-width="1.2" stroke-linecap="round" stroke-linejoin="round"/><path d="M 61 68 A 5 5 0 1 0 71 68 A 5 5 0 1 0 61 68 Z" fill="#C19F59" stroke="#203F36" stroke-width="1.2" stroke-linecap="round" stroke-linejoin="round"/><path d="M 40 75 A 3 3 0 1 0 46 75 A 3 3 0 1 0 40 75 Z" fill="#C19F59" stroke="#203F36" stroke-width="1.2" stroke-linecap="round" stroke-linejoin="round"/><path d="M 51 40 A 4 2 0 1 0 59 40 A 4 2 0 1 0 51 40 Z" fill="#C19F59" stroke="#203F36" stroke-width="1.2" stroke-linecap="round" stroke-linejoin="round"/></g></svg>
