<?xml version="1.0" encoding="UTF-8"?>
<svg xmlns="http://www.w3.org/2000/svg" width="96" height="96" viewBox="0 0 96 96"><g transform="translate(5.90795 5.25197) rotate(0) scale(0.87464 0.87464)"><path d="M 44 79 Q 38.358185854701915 67 38.358185854701915 53" fill="none" stroke="#203F36" stroke-width="8" stroke-linecap="round" stroke-linejoin="round"/><path d="M 44 79 Q 38.358185854701915 67 38.358185854701915 53" fill="none" stroke="#D99858" stroke-width="5.5" stroke-linecap="round" stroke-linejoin="round"/><g transform="translate(38.358185854701915 58) rotate(-40) scale(1.2592592592592593 1.2777777777777777)"><path d="M 0 0 C -18 -8 -16 -27 0 -36 C 17 -27 17 -9 0 0 Z" fill="#7D9C67" stroke="#203F36" stroke-width="1.8" stroke-linecap="round" stroke-linejoin="round"/><path d="M 0 -2 Q 1 -16 0 -31" fill="none" stroke="#DCB573" stroke-width="1.1" stroke-linecap="round" stroke-linejoin="round"/><path d="M 0 -8 Q -5 -9 -8 -14 M 0 -8 Q 5 -9 8 -14" fill="none" stroke="#DCB573" stroke-width="0.75" stroke-linecap="round" stroke-linejoin="round"/><path d="M 0 -15 Q -5 -16 -8 -21 M 0 -15 Q 5 -16 8 -21" fill="none" stroke="#DCB573" stroke-width="0.75" stroke-linecap="round" stroke-linejoin="round"/><path d="M 0 -22 Q -5 -23 -8 -28 M 0 -22 Q 5 -23 8 -28" fill="none" stroke="#DCB573" stroke-width="0.75" stroke-linecap="round" stroke-linejoin="round"/></g><path d="M 46 79 Q 48 67 48 53" fill="none" stroke="#203F36" stroke-width="8" stroke-linecap="round" stroke-linejoin="round"/><path d="M 46 79 Q 48 67 48 53" fill="none" stroke="#D99858" stroke-width="5.5" stroke-linecap="round" stroke-linejoin="round"/><g transform="translate(48 58) rotate(0) scale(1.2592592592592593 1.1666666666666667)"><path d="M 0 0 C -18 -8 -16 -27 0 -36 C 17 -27 17 -9 0 0 Z" fill="#7D9C67" stroke="#203F36" stroke-width="1.8" stroke-linecap="round" stroke-linejoin="round"/><path d="M 0 -2 Q 1 -16 0 -31" fill="none" stroke="#DCB573" stroke-width="1.1" stroke-linecap="round" stroke-linejoin="round"/><path d="M 0 -8 Q -5 -9 -8 -14 M 0 -8 Q 5 -9 8 -14" fill="none" stroke="#DCB573" stroke-width="0.75" stroke-linecap="round" stroke-linejoin="round"/><path d="M 0 -15 Q -5 -16 -8 -21 M 0 -15 Q 5 -16 8 -21" fill="none" stroke="#DCB573" stroke-width="0.75" stroke-linecap="round" stroke-linejoin="round"/><path d="M 0 -22 Q -5 -23 -8 -28 M 0 -22 Q 5 -23 8 -28" fill="none" stroke="#DCB573" stroke-width="0.75" stroke-linecap="round" stroke-linejoin="round"/></g><path d="M 48 79 Q 57.641814145298085 67 57.641814145298085 53" fill="none" stroke="#203F36" stroke-width="8" stroke-linecap="round" stroke-linejoin="round"/><path d="M 48 79 Q 57.641814145298085 67 57.641814145298085 53" fill="none" stroke="#D99858" stroke-width="5.5" stroke-linecap="round" stroke-linejoin="round"/><g transform="translate(57.641814145298085 58) rotate(40) scale(1.2592592592592593 1.2777777777777777)"><path d="M 0 0 C -18 -8 -16 -27 0 -36 C 17 -27 17 -9 0 0 Z" fill="#7D9C67" stroke="#203F36" stroke-width="1.8" stroke-linecap="round" stroke-linejoin="round"/><path d="M 0 -2 Q 1 -16 0 -31" fill="none" stroke="#DCB573" stroke-width="1.1" stroke-linecap="round" stroke-linejoin="round"/><path d="M 0 -8 Q -5 -9 -8 -14 M 0 -8 Q 5 -9 8 -14" fill="none" stroke="#DCB573" stroke-width="0.75" stroke-linecap="round" stroke-linejoin="round"/><path d="M 0 -15 Q -5 -16 -8 -21 M 0 -15 Q 5 -16 8 -21" fill="none" stroke="#DCB573" stroke-width="0.75" stroke-linecap="round" stroke-linejoin="round"/><path d="M 0 -22 Q -5 -23 -8 -28 M 0 -22 Q 5 -23 8 -28" fill="none" stroke="#DCB573" stroke-width="0.75" stroke-linecap="round" stroke-linejoin="round"/></g></g></svg>
