<?xml version="1.0" encoding="UTF-8"?>
<svg xmlns="http://www.w3.org/2000/svg" width="96" height="96" viewBox="0 0 96 96"><g transform="translate(-8.39673 -10.594) rotate(0) scale(1.17188 1.17188)"><path d="M 36 80 Q 28 53 40 20" fill="none" stroke="#203F36" stroke-width="3.8" stroke-linecap="round" stroke-linejoin="round"/><path d="M 36 80 Q 28 53 40 20" fill="none" stroke="#B5C78C" stroke-width="2" stroke-linecap="round" stroke-linejoin="round"/><g transform="translate(34 67) rotate(55) scale(0.6666666666666666 0.5833333333333334)"><path d="M 0 0 C -18 -8 -16 -27 0 -36 C 17 -27 17 -9 0 0 Z" fill="#7D9C67" stroke="#203F36" stroke-width="1.8" stroke-linecap="round" stroke-linejoin="round"/><path d="M 0 -2 Q 1 -16 0 -31" fill="none" stroke="#4E7053" stroke-width="1.1" stroke-linecap="round" stroke-linejoin="round"/><path d="M 0 -8 Q -5 -9 -8 -14 M 0 -8 Q 5 -9 8 -14" fill="none" stroke="#4E7053" stroke-width="0.75" stroke-linecap="round" stroke-linejoin="round"/><path d="M 0 -15 Q -5 -16 -8 -21 M 0 -15 Q 5 -16 8 -21" fill="none" stroke="#4E7053" stroke-width="0.75" stroke-linecap="round" stroke-linejoin="round"/><path d="M 0 -22 Q -5 -23 -8 -28 M 0 -22 Q 5 -23 8 -28" fill="none" stroke="#4E7053" stroke-width="0.75" stroke-linecap="round" stroke-linejoin="round"/></g><g transform="translate(34 50) rotate(-53) scale(0.6666666666666666 0.5833333333333334)"><path d="M 0 0 C -18 -8 -16 -27 0 -36 C 17 -27 17 -9 0 0 Z" fill="#7D9C67" stroke="#203F36" stroke-width="1.8" stroke-linecap="round" stroke-linejoin="round"/><path d="M 0 -2 Q 1 -16 0 -31" fill="none" stroke="#4E7053" stroke-width="1.1" stroke-linecap="round" stroke-linejoin="round"/><path d="M 0 -8 Q -5 -9 -8 -14 M 0 -8 Q 5 -9 8 -14" fill="none" stroke="#4E7053" stroke-width="0.75" stroke-linecap="round" stroke-linejoin="round"/><path d="M 0 -15 Q -5 -16 -8 -21 M 0 -15 Q 5 -16 8 -21" fill="none" stroke="#4E7053" stroke-width="0.75" stroke-linecap="round" stroke-linejoin="round"/><path d="M 0 -22 Q -5 -23 -8 -28 M 0 -22 Q 5 -23 8 -28" fill="none" stroke="#4E7053" stroke-width="0.75" stroke-linecap="round" stroke-linejoin="round"/></g><g transform="translate(34 33) rotate(55) scale(0.6666666666666666 0.5833333333333334)"><path d="M 0 0 C -18 -8 -16 -27 0 -36 C 17 -27 17 -9 0 0 Z" fill="#7D9C67" stroke="#203F36" stroke-width="1.8" stroke-linecap="round" stroke-linejoin="round"/><path d="M 0 -2 Q 1 -16 0 -31" fill="none" stroke="#4E7053" stroke-width="1.1" stroke-linecap="round" stroke-linejoin="round"/><path d="M 0 -8 Q -5 -9 -8 -14 M 0 -8 Q 5 -9 8 -14" fill="none" stroke="#4E7053" stroke-width="0.75" stroke-linecap="round" stroke-linejoin="round"/><path d="M 0 -15 Q -5 -16 -8 -21 M 0 -15 Q 5 -16 8 -21" fill="none" stroke="#4E7053" stroke-width="0.75" stroke-linecap="round" stroke-linejoin="round"/><path d="M 0 -22 Q -5 -23 -8 -28 M 0 -22 Q 5 -23 8 -28" fill="none" stroke="#4E7053" stroke-width="0.75" stroke-linecap="round" stroke-linejoin="round"/></g><path d="M 56 80 Q 48 53 60 20" fill="none" stroke="#203F36" stroke-width="3.8" stroke-linecap="round" stroke-linejoin="round"/><path d="M 56 80 Q 48 53 60 20" fill="none" stroke="#B5C78C" stroke-width="2" stroke-linecap="round" stroke-linejoin="round"/><g transform="translate(54 67) rotate(55) scale(0.6666666666666666 0.5833333333333334)"><path d="M 0 0 C -18 -8 -16 -27 0 -36 C 17 -27 17 -9 0 0 Z" fill="#7D9C67" stroke="#203F36" stroke-width="1.8" stroke-linecap="round" stroke-linejoin="round"/><path d="M 0 -2 Q 1 -16 0 -31" fill="none" stroke="#4E7053" stroke-width="1.1" stroke-linecap="round" stroke-linejoin="round"/><path d="M 0 -8 Q -5 -9 -8 -14 M 0 -8 Q 5 -9 8 -14" fill="none" stroke="#4E7053" stroke-width="0.75" stroke-linecap="round" stroke-linejoin="round"/><path d="M 0 -15 Q -5 -16 -8 -21 M 0 -15 Q 5 -16 8 -21" fill="none" stroke="#4E7053" stroke-width="0.75" stroke-linecap="round" stroke-linejoin="round"/><path d="M 0 -22 Q -5 -23 -8 -28 M 0 -22 Q 5 -23 8 -28" fill="none" stroke="#4E7053" stroke-width="0.75" stroke-linecap="round" stroke-linejoin="round"/></g><g transform="translate(54 50) rotate(-53) scale(0.6666666666666666 0.5833333333333334)"><path d="M 0 0 C -18 -8 -16 -27 0 -36 C 17 -27 17 -9 0 0 Z" fill="#7D9C67" stroke="#203F36" stroke-width="1.8" stroke-linecap="round" stroke-linejoin="round"/><path d="M 0 -2 Q 1 -16 0 -31" fill="none" stroke="#4E7053" stroke-width="1.1" stroke-linecap="round" stroke-linejoin="round"/><path d="M 0 -8 Q -5 -9 -8 -14 M 0 -8 Q 5 -9 8 -14" fill="none" stroke="#4E7053" stroke-width="0.75" stroke-linecap="round" stroke-linejoin="round"/><path d="M 0 -15 Q -5 -16 -8 -21 M 0 -15 Q 5 -16 8 -21" fill="none" stroke="#4E7053" stroke-width="0.75" stroke-linecap="round" stroke-linejoin="round"/><path d="M 0 -22 Q -5 -23 -8 -28 M 0 -22 Q 5 -23 8 -28" fill="none" stroke="#4E7053" stroke-width="0.75" stroke-linecap="round" stroke-linejoin="round"/></g><g transform="translate(54 33) rotate(55) scale(0.6666666666666666 0.5833333333333334)"><path d="M 0 0 C -18 -8 -16 -27 0 -36 C 17 -27 17 -9 0 0 Z" fill="#7D9C67" stroke="#203F36" stroke-width="1.8" stroke-linecap="round" stroke-linejoin="round"/><path d="M 0 -2 Q 1 -16 0 -31" fill="none" stroke="#4E7053" stroke-width="1.1" stroke-linecap="round" stroke-linejoin="round"/><path d="M 0 -8 Q -5 -9 -8 -14 M 0 -8 Q 5 -9 8 -14" fill="none" stroke="#4E7053" stroke-width="0.75" stroke-linecap="round" stroke-linejoin="round"/><path d="M 0 -15 Q -5 -16 -8 -21 M 0 -15 Q 5 -16 8 -21" fill="none" stroke="#4E7053" stroke-width="0.75" stroke-linecap="round" stroke-linejoin="round"/><path d="M 0 -22 Q -5 -23 -8 -28 M 0 -22 Q 5 -23 8 -28" fill="none" stroke="#4E7053" stroke-width="0.75" stroke-linecap="round" stroke-linejoin="round"/></g><path d="M 59 40 C 82 25 84 49 72 46 C 65 43 72 37 77 42" fill="none" stroke="#4E7053" stroke-width="1.4" stroke-linecap="round" stroke-linejoin="round"/></g></svg>
