<?xml version="1.0" encoding="UTF-8"?>
<svg xmlns="http://www.w3.org/2000/svg" width="96" height="96" viewBox="0 0 96 96"><g transform="translate(6.69543 9.63022) rotate(0) scale(0.86957 0.86957)"><g transform="translate(-7 -9) rotate(0) scale(0.86 0.86)"><path d="M 20 46 C 24 23 54 19 73 35 C 89 52 74 80 53 82 C 29 87 10 67 20 46 Z" fill="#765570" stroke="#203F36" stroke-width="2.3" stroke-linecap="round" stroke-linejoin="round"/><path d="M 25 43 Q 29 30 39 32 Q 31 38 30 51 Q 22 53 25 43 Z" fill="#D79B88" stroke="none" stroke-width="2.3" stroke-linecap="round" stroke-linejoin="round"/><path d="M 48 29 q -3 -12 5 -16" fill="none" stroke="#9B7758" stroke-width="2.6" stroke-linecap="round" stroke-linejoin="round"/><g transform="translate(51 24) rotate(61) scale(0.48148148148148145 0.5277777777777778)"><path d="M 0 0 C -18 -8 -16 -27 0 -36 C 17 -27 17 -9 0 0 Z" fill="#7D9C67" stroke="#203F36" stroke-width="1.8" stroke-linecap="round" stroke-linejoin="round"/><path d="M 0 -2 Q 1 -16 0 -31" fill="none" stroke="#4E7053" stroke-width="1.1" stroke-linecap="round" stroke-linejoin="round"/><path d="M 0 -8 Q -5 -9 -8 -14 M 0 -8 Q 5 -9 8 -14" fill="none" stroke="#4E7053" stroke-width="0.75" stroke-linecap="round" stroke-linejoin="round"/><path d="M 0 -15 Q -5 -16 -8 -21 M 0 -15 Q 5 -16 8 -21" fill="none" stroke="#4E7053" stroke-width="0.75" stroke-linecap="round" stroke-linejoin="round"/><path d="M 0 -22 Q -5 -23 -8 -28 M 0 -22 Q 5 -23 8 -28" fill="none" stroke="#4E7053" stroke-width="0.75" stroke-linecap="round" stroke-linejoin="round"/></g></g><path d="M 43 66 A 22 20 0 1 0 87 66 A 22 20 0 1 0 43 66 Z" fill="#765570" stroke="#203F36" stroke-width="2.3" stroke-linecap="round" stroke-linejoin="round"/><path d="M 47 65 A 18 17 0 1 0 83 65 A 18 17 0 1 0 47 65 Z" fill="#F5EFDC" stroke="#203F36" stroke-width="1" stroke-linecap="round" stroke-linejoin="round"/><path d="M 67 65 A 6 7 0 1 0 79 65 A 6 7 0 1 0 67 65 Z" fill="#F5EFDC" stroke="#D9CFAD" stroke-width="1" stroke-linecap="round" stroke-linejoin="round"/><path d="M 63 72 A 6 7 0 1 0 75 72 A 6 7 0 1 0 63 72 Z" fill="#F5EFDC" stroke="#D9CFAD" stroke-width="1" stroke-linecap="round" stroke-linejoin="round"/><path d="M 55 72 A 6 7 0 1 0 67 72 A 6 7 0 1 0 55 72 Z" fill="#F5EFDC" stroke="#D9CFAD" stroke-width="1" stroke-linecap="round" stroke-linejoin="round"/><path d="M 51 65 A 6 7 0 1 0 63 65 A 6 7 0 1 0 51 65 Z" fill="#F5EFDC" stroke="#D9CFAD" stroke-width="1" stroke-linecap="round" stroke-linejoin="round"/><path d="M 55 58 A 6 7 0 1 0 67 58 A 6 7 0 1 0 55 58 Z" fill="#F5EFDC" stroke="#D9CFAD" stroke-width="1" stroke-linecap="round" stroke-linejoin="round"/><path d="M 63 58 A 6 7 0 1 0 75 58 A 6 7 0 1 0 63 58 Z" fill="#F5EFDC" stroke="#D9CFAD" stroke-width="1" stroke-linecap="round" stroke-linejoin="round"/><path d="M 37 8 L 41.243 17.757 L 51 22 L 41.243 26.243 L 37 36 L 32.757 26.243 L 23 22 L 32.757 17.757 Z" fill="#7D9C67" stroke="#203F36" stroke-width="1.4" stroke-linecap="round" stroke-linejoin="round"/></g></svg>
