<?xml version="1.0" encoding="UTF-8"?>
<svg xmlns="http://www.w3.org/2000/svg" width="96" height="96" viewBox="0 0 96 96"><g transform="translate(-5.33356 -5.74173) rotate(0) scale(1.08844 1.08844)"><g transform="translate(0 0) rotate(0) scale(0.77 0.77)"><path d="M 17 29 L 69 19 L 79 55 L 47 72 L 22 64 Z" fill="#FFF3DA" stroke="#405347" stroke-width="1.8" stroke-linecap="round" stroke-linejoin="round"/><path d="M 24 61 Q 20 44 43 36 Q 61 29 66 45 L 64 65 Q 43 49 24 61 Z" fill="#E3CDA5" stroke="#405347" stroke-width="1.8" stroke-linecap="round" stroke-linejoin="round"/><path d="M 24 60 L 37 55 L 49 71 L 64 61 L 71 72 Q 49 92 24 60 Z" fill="#FFF3DA" stroke="#405347" stroke-width="1.8" stroke-linecap="round" stroke-linejoin="round"/><path d="M 31 35 L 51 27 M 42 66 L 52 74" fill="none" stroke="#AD8056" stroke-width="0.8" stroke-linecap="round" stroke-linejoin="round"/></g><g transform="translate(32 31) rotate(0) scale(0.67 0.67)"><path d="M 17 29 L 69 19 L 79 55 L 47 72 L 22 64 Z" fill="#FFF3DA" stroke="#405347" stroke-width="1.8" stroke-linecap="round" stroke-linejoin="round"/><path d="M 24 61 Q 20 44 43 36 Q 61 29 66 45 L 64 65 Q 43 49 24 61 Z" fill="#E3CDA5" stroke="#405347" stroke-width="1.8" stroke-linecap="round" stroke-linejoin="round"/><path d="M 24 60 L 37 55 L 49 71 L 64 61 L 71 72 Q 49 92 24 60 Z" fill="#FFF3DA" stroke="#405347" stroke-width="1.8" stroke-linecap="round" stroke-linejoin="round"/><path d="M 31 35 L 51 27 M 42 66 L 52 74" fill="none" stroke="#AD8056" stroke-width="0.8" stroke-linecap="round" stroke-linejoin="round"/></g></g></svg>
