<?xml version="1.0" encoding="UTF-8"?>
<svg xmlns="http://www.w3.org/2000/svg" width="96" height="96" viewBox="0 0 96 96"><g transform="translate(-7.97421 -6.31979) rotate(0) scale(1.10294 1.10294)"><g transform="translate(0 0) rotate(0) scale(1 1)"><path d="M 21 33 L 29 77 Q 48 87 69 77 L 78 33 Z" fill="#F5EFDC" stroke="#203F36" stroke-width="2.3" stroke-linecap="round" stroke-linejoin="round"/><path d="M 66 39 L 75 35 L 67 77 Q 63 81 57 81 L 62 58 Z" fill="#D9CFAD" stroke="none" stroke-width="2.3" stroke-linecap="round" stroke-linejoin="round"/><path d="M 27 52 Q 46 60 73 49 L 69 70 Q 48 83 30 69 Z" fill="#91ABA7" stroke="#203F36" stroke-width="2.3" stroke-linecap="round" stroke-linejoin="round"/><path d="M 38 63 A 11 10 0 1 0 60 63 A 11 10 0 1 0 38 63 Z" fill="#F5EFDC" stroke="#203F36" stroke-width="1" stroke-linecap="round" stroke-linejoin="round"/><path d="M 49 56 Q 37 67 49 70 Q 61 67 49 56 Z" fill="#91ABA7" stroke="#203F36" stroke-width="0.7" stroke-linecap="round" stroke-linejoin="round"/><path d="M 18 33 A 31 9 0 1 0 80 33 A 31 9 0 1 0 18 33 Z" fill="#F5EFDC" stroke="#203F36" stroke-width="2.3" stroke-linecap="round" stroke-linejoin="round"/><path d="M 25 32 A 24 5 0 1 0 73 32 A 24 5 0 1 0 25 32 Z" fill="#D9CFAD" stroke="#203F36" stroke-width="1" stroke-linecap="round" stroke-linejoin="round"/><path d="M 29 31 A 20 3.4 0 1 0 69 31 A 20 3.4 0 1 0 29 31 Z" fill="#F5EFDC" stroke="#203F36" stroke-width="0.7" stroke-linecap="round" stroke-linejoin="round"/><path d="M 30 43 L 34 58" fill="none" stroke="#F5EFDC" stroke-width="2" stroke-linecap="round" stroke-linejoin="round"/></g><path d="M 64 26 Q 73 24 79 16 L 84 25 Q 80 33 70 34 Z" fill="#F5EFDC" stroke="#203F36" stroke-width="1.4" stroke-linecap="round" stroke-linejoin="round"/><path d="M 73 27 L 79 20" fill="none" stroke="#D9CFAD" stroke-width="1" stroke-linecap="round" stroke-linejoin="round"/></g></svg>
