<?xml version="1.0" encoding="UTF-8"?>
<svg xmlns="http://www.w3.org/2000/svg" width="96" height="96" viewBox="0 0 96 96"><g transform="translate(7.09104 11.45892) rotate(0) scale(0.85227 0.85227)"><path d="M 44 79 Q 38.358185854701915 67 38.358185854701915 53" fill="none" stroke="#203F36" stroke-width="3.3" stroke-linecap="round" stroke-linejoin="round"/><path d="M 44 79 Q 38.358185854701915 67 38.358185854701915 53" fill="none" stroke="#B5C78C" stroke-width="1.5" stroke-linecap="round" stroke-linejoin="round"/><g transform="translate(38.358185854701915 58) rotate(-40) scale(0.7037037037037037 1.3611111111111112)"><path d="M 0 0 L -7 -5 L -5 -8 L -11 -12 L -8 -16 L -14 -21 L -9 -25 L -10 -29 L 0 -38 L 10 -29 L 9 -25 L 14 -21 L 8 -16 L 11 -12 L 5 -8 L 7 -5 Z" fill="#7D9C67" stroke="#203F36" stroke-width="1.8" stroke-linecap="round" stroke-linejoin="round"/><path d="M 0 -2 Q 1 -16 0 -31" fill="none" stroke="#4E7053" stroke-width="1.1" stroke-linecap="round" stroke-linejoin="round"/><path d="M 0 -8 Q -5 -9 -8 -14 M 0 -8 Q 5 -9 8 -14" fill="none" stroke="#4E7053" stroke-width="0.75" stroke-linecap="round" stroke-linejoin="round"/><path d="M 0 -15 Q -5 -16 -8 -21 M 0 -15 Q 5 -16 8 -21" fill="none" stroke="#4E7053" stroke-width="0.75" stroke-linecap="round" stroke-linejoin="round"/><path d="M 0 -22 Q -5 -23 -8 -28 M 0 -22 Q 5 -23 8 -28" fill="none" stroke="#4E7053" stroke-width="0.75" stroke-linecap="round" stroke-linejoin="round"/></g><path d="M 46 79 Q 42.86969785011497 67 42.86969785011497 53" fill="none" stroke="#203F36" stroke-width="3.3" stroke-linecap="round" stroke-linejoin="round"/><path d="M 46 79 Q 42.86969785011497 67 42.86969785011497 53" fill="none" stroke="#B5C78C" stroke-width="1.5" stroke-linecap="round" stroke-linejoin="round"/><g transform="translate(42.86969785011497 58) rotate(-20) scale(0.7037037037037037 1.25)"><path d="M 0 0 L -7 -5 L -5 -8 L -11 -12 L -8 -16 L -14 -21 L -9 -25 L -10 -29 L 0 -38 L 10 -29 L 9 -25 L 14 -21 L 8 -16 L 11 -12 L 5 -8 L 7 -5 Z" fill="#7D9C67" stroke="#203F36" stroke-width="1.8" stroke-linecap="round" stroke-linejoin="round"/><path d="M 0 -2 Q 1 -16 0 -31" fill="none" stroke="#4E7053" stroke-width="1.1" stroke-linecap="round" stroke-linejoin="round"/><path d="M 0 -8 Q -5 -9 -8 -14 M 0 -8 Q 5 -9 8 -14" fill="none" stroke="#4E7053" stroke-width="0.75" stroke-linecap="round" stroke-linejoin="round"/><path d="M 0 -15 Q -5 -16 -8 -21 M 0 -15 Q 5 -16 8 -21" fill="none" stroke="#4E7053" stroke-width="0.75" stroke-linecap="round" stroke-linejoin="round"/><path d="M 0 -22 Q -5 -23 -8 -28 M 0 -22 Q 5 -23 8 -28" fill="none" stroke="#4E7053" stroke-width="0.75" stroke-linecap="round" stroke-linejoin="round"/></g><path d="M 48 79 Q 48 67 48 53" fill="none" stroke="#203F36" stroke-width="3.3" stroke-linecap="round" stroke-linejoin="round"/><path d="M 48 79 Q 48 67 48 53" fill="none" stroke="#B5C78C" stroke-width="1.5" stroke-linecap="round" stroke-linejoin="round"/><g transform="translate(48 58) rotate(0) scale(0.7037037037037037 1.3611111111111112)"><path d="M 0 0 L -7 -5 L -5 -8 L -11 -12 L -8 -16 L -14 -21 L -9 -25 L -10 -29 L 0 -38 L 10 -29 L 9 -25 L 14 -21 L 8 -16 L 11 -12 L 5 -8 L 7 -5 Z" fill="#7D9C67" stroke="#203F36" stroke-width="1.8" stroke-linecap="round" stroke-linejoin="round"/><path d="M 0 -2 Q 1 -16 0 -31" fill="none" stroke="#4E7053" stroke-width="1.1" stroke-linecap="round" stroke-linejoin="round"/><path d="M 0 -8 Q -5 -9 -8 -14 M 0 -8 Q 5 -9 8 -14" fill="none" stroke="#4E7053" stroke-width="0.75" stroke-linecap="round" stroke-linejoin="round"/><path d="M 0 -15 Q -5 -16 -8 -21 M 0 -15 Q 5 -16 8 -21" fill="none" stroke="#4E7053" stroke-width="0.75" stroke-linecap="round" stroke-linejoin="round"/><path d="M 0 -22 Q -5 -23 -8 -28 M 0 -22 Q 5 -23 8 -28" fill="none" stroke="#4E7053" stroke-width="0.75" stroke-linecap="round" stroke-linejoin="round"/></g><path d="M 50 79 Q 53.13030214988503 67 53.13030214988503 53" fill="none" stroke="#203F36" stroke-width="3.3" stroke-linecap="round" stroke-linejoin="round"/><path d="M 50 79 Q 53.13030214988503 67 53.13030214988503 53" fill="none" stroke="#B5C78C" stroke-width="1.5" stroke-linecap="round" stroke-linejoin="round"/><g transform="translate(53.13030214988503 58) rotate(20) scale(0.7037037037037037 1.25)"><path d="M 0 0 L -7 -5 L -5 -8 L -11 -12 L -8 -16 L -14 -21 L -9 -25 L -10 -29 L 0 -38 L 10 -29 L 9 -25 L 14 -21 L 8 -16 L 11 -12 L 5 -8 L 7 -5 Z" fill="#7D9C67" stroke="#203F36" stroke-width="1.8" stroke-linecap="round" stroke-linejoin="round"/><path d="M 0 -2 Q 1 -16 0 -31" fill="none" stroke="#4E7053" stroke-width="1.1" stroke-linecap="round" stroke-linejoin="round"/><path d="M 0 -8 Q -5 -9 -8 -14 M 0 -8 Q 5 -9 8 -14" fill="none" stroke="#4E7053" stroke-width="0.75" stroke-linecap="round" stroke-linejoin="round"/><path d="M 0 -15 Q -5 -16 -8 -21 M 0 -15 Q 5 -16 8 -21" fill="none" stroke="#4E7053" stroke-width="0.75" stroke-linecap="round" stroke-linejoin="round"/><path d="M 0 -22 Q -5 -23 -8 -28 M 0 -22 Q 5 -23 8 -28" fill="none" stroke="#4E7053" stroke-width="0.75" stroke-linecap="round" stroke-linejoin="round"/></g><path d="M 52 79 Q 57.641814145298085 67 57.641814145298085 53" fill="none" stroke="#203F36" stroke-width="3.3" stroke-linecap="round" stroke-linejoin="round"/><path d="M 52 79 Q 57.641814145298085 67 57.641814145298085 53" fill="none" stroke="#B5C78C" stroke-width="1.5" stroke-linecap="round" stroke-linejoin="round"/><g transform="translate(57.641814145298085 58) rotate(40) scale(0.7037037037037037 1.3611111111111112)"><path d="M 0 0 L -7 -5 L -5 -8 L -11 -12 L -8 -16 L -14 -21 L -9 -25 L -10 -29 L 0 -38 L 10 -29 L 9 -25 L 14 -21 L 8 -16 L 11 -12 L 5 -8 L 7 -5 Z" fill="#7D9C67" stroke="#203F36" stroke-width="1.8" stroke-linecap="round" stroke-linejoin="round"/><path d="M 0 -2 Q 1 -16 0 -31" fill="none" stroke="#4E7053" stroke-width="1.1" stroke-linecap="round" stroke-linejoin="round"/><path d="M 0 -8 Q -5 -9 -8 -14 M 0 -8 Q 5 -9 8 -14" fill="none" stroke="#4E7053" stroke-width="0.75" stroke-linecap="round" stroke-linejoin="round"/><path d="M 0 -15 Q -5 -16 -8 -21 M 0 -15 Q 5 -16 8 -21" fill="none" stroke="#4E7053" stroke-width="0.75" stroke-linecap="round" stroke-linejoin="round"/><path d="M 0 -22 Q -5 -23 -8 -28 M 0 -22 Q 5 -23 8 -28" fill="none" stroke="#4E7053" stroke-width="0.75" stroke-linecap="round" stroke-linejoin="round"/></g></g></svg>
