<?xml version="1.0" encoding="UTF-8"?>
<svg xmlns="http://www.w3.org/2000/svg" width="96" height="96" viewBox="0 0 96 96"><g transform="translate(6.25 15.625) rotate(0) scale(1 1)"><g transform="translate(-7 -16) rotate(0) scale(0.96 0.5088)"><path d="M 10 40 L 33 24 L 83 34 L 82 66 L 61 81 L 11 68 Z" fill="#D27C75" stroke="#985954" stroke-width="1.5" stroke-linecap="round" stroke-linejoin="round"/><path d="M 10 40 L 33 24 L 83 34 L 61 50 Z" fill="#FFEAD2" stroke="#985954" stroke-width="1.3" stroke-linecap="round" stroke-linejoin="round"/><path d="M 17 38 L 34 28 L 75 36 L 58 44 Z" fill="#E4A193" stroke="none" stroke-width="1.8" stroke-linecap="round" stroke-linejoin="round"/><path d="M 11 48 L 61 59 L 82 45 L 82 52 L 61 66 L 11 55 Z" fill="#FFE9D0" stroke="none" stroke-width="1.8" stroke-linecap="round" stroke-linejoin="round"/><path d="M 11 61 L 61 73 L 82 58 L 82 64 L 61 79 L 11 67 Z" fill="#F9D7B9" stroke="none" stroke-width="1.8" stroke-linecap="round" stroke-linejoin="round"/><path d="M 61 51 V 79" fill="none" stroke="#B06C60" stroke-width="1.2" stroke-linecap="round" stroke-linejoin="round"/><path d="M 20 44 L 48 50" fill="none" stroke="#F6BDB0" stroke-width="1.5" stroke-linecap="round" stroke-linejoin="round"/></g><g transform="translate(-2 7) rotate(0) scale(1 0.53)"><path d="M 10 40 L 33 24 L 83 34 L 82 66 L 61 81 L 11 68 Z" fill="#D27C75" stroke="#985954" stroke-width="1.5" stroke-linecap="round" stroke-linejoin="round"/><path d="M 10 40 L 33 24 L 83 34 L 61 50 Z" fill="#FFEAD2" stroke="#985954" stroke-width="1.3" stroke-linecap="round" stroke-linejoin="round"/><path d="M 17 38 L 34 28 L 75 36 L 58 44 Z" fill="#E4A193" stroke="none" stroke-width="1.8" stroke-linecap="round" stroke-linejoin="round"/><path d="M 11 48 L 61 59 L 82 45 L 82 52 L 61 66 L 11 55 Z" fill="#FFE9D0" stroke="none" stroke-width="1.8" stroke-linecap="round" stroke-linejoin="round"/><path d="M 11 61 L 61 73 L 82 58 L 82 64 L 61 79 L 11 67 Z" fill="#F9D7B9" stroke="none" stroke-width="1.8" stroke-linecap="round" stroke-linejoin="round"/><path d="M 61 51 V 79" fill="none" stroke="#B06C60" stroke-width="1.2" stroke-linecap="round" stroke-linejoin="round"/><path d="M 20 44 L 48 50" fill="none" stroke="#F6BDB0" stroke-width="1.5" stroke-linecap="round" stroke-linejoin="round"/></g><g transform="translate(6 30) rotate(0) scale(0.9 0.47700000000000004)"><path d="M 10 40 L 33 24 L 83 34 L 82 66 L 61 81 L 11 68 Z" fill="#D27C75" stroke="#985954" stroke-width="1.5" stroke-linecap="round" stroke-linejoin="round"/><path d="M 10 40 L 33 24 L 83 34 L 61 50 Z" fill="#FFEAD2" stroke="#985954" stroke-width="1.3" stroke-linecap="round" stroke-linejoin="round"/><path d="M 17 38 L 34 28 L 75 36 L 58 44 Z" fill="#E4A193" stroke="none" stroke-width="1.8" stroke-linecap="round" stroke-linejoin="round"/><path d="M 11 48 L 61 59 L 82 45 L 82 52 L 61 66 L 11 55 Z" fill="#FFE9D0" stroke="none" stroke-width="1.8" stroke-linecap="round" stroke-linejoin="round"/><path d="M 11 61 L 61 73 L 82 58 L 82 64 L 61 79 L 11 67 Z" fill="#F9D7B9" stroke="none" stroke-width="1.8" stroke-linecap="round" stroke-linejoin="round"/><path d="M 61 51 V 79" fill="none" stroke="#B06C60" stroke-width="1.2" stroke-linecap="round" stroke-linejoin="round"/><path d="M 20 44 L 48 50" fill="none" stroke="#F6BDB0" stroke-width="1.5" stroke-linecap="round" stroke-linejoin="round"/></g></g></svg>
