<?xml version="1.0" encoding="UTF-8"?>
<svg xmlns="http://www.w3.org/2000/svg" width="96" height="96" viewBox="0 0 96 96"><g transform="translate(-4.77773 -10.33328) rotate(0) scale(1.11111 1.11111)"><path d="M 18 74 L 23 34 Q 21 23 28 24 Q 36 26 30 34 L 28 74 Z" fill="#F5EFDC" stroke="#203F36" stroke-width="2.3" stroke-linecap="round" stroke-linejoin="round"/><path d="M 15 47 L 30 40 L 35 71 L 19 81 Z" fill="#D79B88" stroke="#203F36" stroke-width="2.3" stroke-linecap="round" stroke-linejoin="round"/><path d="M 20 52 L 26 72" fill="none" stroke="#F5EFDC" stroke-width="3" stroke-linecap="round" stroke-linejoin="round"/><path d="M 33 74 L 38 34 Q 36 23 43 24 Q 51 26 45 34 L 43 74 Z" fill="#F5EFDC" stroke="#203F36" stroke-width="2.3" stroke-linecap="round" stroke-linejoin="round"/><path d="M 30 47 L 45 40 L 50 71 L 34 81 Z" fill="#D79B88" stroke="#203F36" stroke-width="2.3" stroke-linecap="round" stroke-linejoin="round"/><path d="M 35 52 L 41 72" fill="none" stroke="#F5EFDC" stroke-width="3" stroke-linecap="round" stroke-linejoin="round"/><path d="M 48 74 L 53 34 Q 51 23 58 24 Q 66 26 60 34 L 58 74 Z" fill="#F5EFDC" stroke="#203F36" stroke-width="2.3" stroke-linecap="round" stroke-linejoin="round"/><path d="M 45 47 L 60 40 L 65 71 L 49 81 Z" fill="#D79B88" stroke="#203F36" stroke-width="2.3" stroke-linecap="round" stroke-linejoin="round"/><path d="M 50 52 L 56 72" fill="none" stroke="#F5EFDC" stroke-width="3" stroke-linecap="round" stroke-linejoin="round"/><path d="M 63 74 L 68 34 Q 66 23 73 24 Q 81 26 75 34 L 73 74 Z" fill="#F5EFDC" stroke="#203F36" stroke-width="2.3" stroke-linecap="round" stroke-linejoin="round"/><path d="M 60 47 L 75 40 L 80 71 L 64 81 Z" fill="#D79B88" stroke="#203F36" stroke-width="2.3" stroke-linecap="round" stroke-linejoin="round"/><path d="M 65 52 L 71 72" fill="none" stroke="#F5EFDC" stroke-width="3" stroke-linecap="round" stroke-linejoin="round"/></g></svg>
