<?xml version="1.0" encoding="UTF-8"?>
<svg xmlns="http://www.w3.org/2000/svg" width="96" height="96" viewBox="0 0 96 96"><g transform="translate(-2.3355 -3.34221) rotate(0) scale(1.00671 1.00671)"><path d="M 14 45 A 24 30 0 1 0 62 45 A 24 30 0 1 0 14 45 Z" fill="#9B7758" stroke="#203F36" stroke-width="2.3" stroke-linecap="round" stroke-linejoin="round"/><path d="M 44.00 46.00 l 2 -1" fill="none" stroke="#D9CFAD" stroke-width="0.6" stroke-linecap="round" stroke-linejoin="round"/><path d="M 29.89 53.43 l 2 -1" fill="none" stroke="#D9CFAD" stroke-width="0.6" stroke-linecap="round" stroke-linejoin="round"/><path d="M 39.40 30.06 l 2 -1" fill="none" stroke="#D9CFAD" stroke-width="0.6" stroke-linecap="round" stroke-linejoin="round"/><path d="M 50.78 62.67 l 2 -1" fill="none" stroke="#D9CFAD" stroke-width="0.6" stroke-linecap="round" stroke-linejoin="round"/><path d="M 32.09 44.95 l 2 -1" fill="none" stroke="#D9CFAD" stroke-width="0.6" stroke-linecap="round" stroke-linejoin="round"/><path d="M 47.28 40.10 l 2 -1" fill="none" stroke="#D9CFAD" stroke-width="0.6" stroke-linecap="round" stroke-linejoin="round"/><path d="M 33.84 61.45 l 2 -1" fill="none" stroke="#D9CFAD" stroke-width="0.6" stroke-linecap="round" stroke-linejoin="round"/><path d="M 28.33 27.36 l 2 -1" fill="none" stroke="#D9CFAD" stroke-width="0.6" stroke-linecap="round" stroke-linejoin="round"/><path d="M 43.64 48.06 l 2 -1" fill="none" stroke="#D9CFAD" stroke-width="0.6" stroke-linecap="round" stroke-linejoin="round"/><path d="M 27.83 50.19 l 2 -1" fill="none" stroke="#D9CFAD" stroke-width="0.6" stroke-linecap="round" stroke-linejoin="round"/><path d="M 44.79 31.51 l 2 -1" fill="none" stroke="#D9CFAD" stroke-width="0.6" stroke-linecap="round" stroke-linejoin="round"/><path d="M 44.28 66.04 l 2 -1" fill="none" stroke="#D9CFAD" stroke-width="0.6" stroke-linecap="round" stroke-linejoin="round"/><path d="M 32.81 42.99 l 2 -1" fill="none" stroke="#D9CFAD" stroke-width="0.6" stroke-linecap="round" stroke-linejoin="round"/><path d="M 48.74 43.64 l 2 -1" fill="none" stroke="#D9CFAD" stroke-width="0.6" stroke-linecap="round" stroke-linejoin="round"/><path d="M 28.79 59.08 l 2 -1" fill="none" stroke="#D9CFAD" stroke-width="0.6" stroke-linecap="round" stroke-linejoin="round"/><path d="M 35.31 25.17 l 2 -1" fill="none" stroke="#D9CFAD" stroke-width="0.6" stroke-linecap="round" stroke-linejoin="round"/><path d="M 42.59 49.87 l 2 -1" fill="none" stroke="#D9CFAD" stroke-width="0.6" stroke-linecap="round" stroke-linejoin="round"/><path d="M 27.01 46.45 l 2 -1" fill="none" stroke="#D9CFAD" stroke-width="0.6" stroke-linecap="round" stroke-linejoin="round"/><path d="M 49.35 34.72 l 2 -1" fill="none" stroke="#D9CFAD" stroke-width="0.6" stroke-linecap="round" stroke-linejoin="round"/><path d="M 37.02 66.98 l 2 -1" fill="none" stroke="#D9CFAD" stroke-width="0.6" stroke-linecap="round" stroke-linejoin="round"/><path d="M 34.16 41.39 l 2 -1" fill="none" stroke="#D9CFAD" stroke-width="0.6" stroke-linecap="round" stroke-linejoin="round"/><path d="M 48.90 47.48 l 2 -1" fill="none" stroke="#D9CFAD" stroke-width="0.6" stroke-linecap="round" stroke-linejoin="round"/><path d="M 24.86 55.13 l 2 -1" fill="none" stroke="#D9CFAD" stroke-width="0.6" stroke-linecap="round" stroke-linejoin="round"/><path d="M 42.63 25.52 l 2 -1" fill="none" stroke="#D9CFAD" stroke-width="0.6" stroke-linecap="round" stroke-linejoin="round"/><path d="M 40.98 51.21 l 2 -1" fill="none" stroke="#D9CFAD" stroke-width="0.6" stroke-linecap="round" stroke-linejoin="round"/><path d="M 27.52 42.65 l 2 -1" fill="none" stroke="#D9CFAD" stroke-width="0.6" stroke-linecap="round" stroke-linejoin="round"/><path d="M 52.53 39.30 l 2 -1" fill="none" stroke="#D9CFAD" stroke-width="0.6" stroke-linecap="round" stroke-linejoin="round"/><path d="M 40 66 A 23 21 0 1 0 86 66 A 23 21 0 1 0 40 66 Z" fill="#9B7758" stroke="#203F36" stroke-width="2.3" stroke-linecap="round" stroke-linejoin="round"/><path d="M 43 65 A 20 18 0 1 0 83 65 A 20 18 0 1 0 43 65 Z" fill="#E2BE68" stroke="#203F36" stroke-width="2.3" stroke-linecap="round" stroke-linejoin="round"/><path d="M 56 65 A 7 6 0 1 0 70 65 A 7 6 0 1 0 56 65 Z" fill="#F5EFDC" stroke="#203F36" stroke-width="0.5" stroke-linecap="round" stroke-linejoin="round"/><path d="M 73 65 A 1 1.8 0 1 0 75 65 A 1 1.8 0 1 0 73 65 Z" fill="#203F36" stroke="none" stroke-width="0" stroke-linecap="round" stroke-linejoin="round"/><path d="M 71.911 69.339 A 1 1.8 0 1 0 73.911 69.339 A 1 1.8 0 1 0 71.911 69.339 Z" fill="#203F36" stroke="none" stroke-width="0" stroke-linecap="round" stroke-linejoin="round"/><path d="M 68.858 72.818 A 1 1.8 0 1 0 70.858 72.818 A 1 1.8 0 1 0 68.858 72.818 Z" fill="#203F36" stroke="none" stroke-width="0" stroke-linecap="round" stroke-linejoin="round"/><path d="M 64.448 74.749 A 1 1.8 0 1 0 66.448 74.749 A 1 1.8 0 1 0 64.448 74.749 Z" fill="#203F36" stroke="none" stroke-width="0" stroke-linecap="round" stroke-linejoin="round"/><path d="M 59.552 74.749 A 1 1.8 0 1 0 61.552 74.749 A 1 1.8 0 1 0 59.552 74.749 Z" fill="#203F36" stroke="none" stroke-width="0" stroke-linecap="round" stroke-linejoin="round"/><path d="M 55.142 72.818 A 1 1.8 0 1 0 57.142 72.818 A 1 1.8 0 1 0 55.142 72.818 Z" fill="#203F36" stroke="none" stroke-width="0" stroke-linecap="round" stroke-linejoin="round"/><path d="M 52.089 69.339 A 1 1.8 0 1 0 54.089 69.339 A 1 1.8 0 1 0 52.089 69.339 Z" fill="#203F36" stroke="none" stroke-width="0" stroke-linecap="round" stroke-linejoin="round"/><path d="M 51 65 A 1 1.8 0 1 0 53 65 A 1 1.8 0 1 0 51 65 Z" fill="#203F36" stroke="none" stroke-width="0" stroke-linecap="round" stroke-linejoin="round"/><path d="M 52.089 60.661 A 1 1.8 0 1 0 54.089 60.661 A 1 1.8 0 1 0 52.089 60.661 Z" fill="#203F36" stroke="none" stroke-width="0" stroke-linecap="round" stroke-linejoin="round"/><path d="M 55.142 57.182 A 1 1.8 0 1 0 57.142 57.182 A 1 1.8 0 1 0 55.142 57.182 Z" fill="#203F36" stroke="none" stroke-width="0" stroke-linecap="round" stroke-linejoin="round"/><path d="M 59.552 55.251 A 1 1.8 0 1 0 61.552 55.251 A 1 1.8 0 1 0 59.552 55.251 Z" fill="#203F36" stroke="none" stroke-width="0" stroke-linecap="round" stroke-linejoin="round"/><path d="M 64.448 55.251 A 1 1.8 0 1 0 66.448 55.251 A 1 1.8 0 1 0 64.448 55.251 Z" fill="#203F36" stroke="none" stroke-width="0" stroke-linecap="round" stroke-linejoin="round"/><path d="M 68.858 57.182 A 1 1.8 0 1 0 70.858 57.182 A 1 1.8 0 1 0 68.858 57.182 Z" fill="#203F36" stroke="none" stroke-width="0" stroke-linecap="round" stroke-linejoin="round"/><path d="M 71.911 60.661 A 1 1.8 0 1 0 73.911 60.661 A 1 1.8 0 1 0 71.911 60.661 Z" fill="#203F36" stroke="none" stroke-width="0" stroke-linecap="round" stroke-linejoin="round"/><path d="M 76 65 l 4 0" fill="none" stroke="#F5EFDC" stroke-width="0.6" stroke-linecap="round" stroke-linejoin="round"/><path d="M 74.26 71 l 3.46 2" fill="none" stroke="#F5EFDC" stroke-width="0.6" stroke-linecap="round" stroke-linejoin="round"/><path d="M 69.5 75.39 l 2 3.46" fill="none" stroke="#F5EFDC" stroke-width="0.6" stroke-linecap="round" stroke-linejoin="round"/><path d="M 63 77 l 0 4" fill="none" stroke="#F5EFDC" stroke-width="0.6" stroke-linecap="round" stroke-linejoin="round"/><path d="M 56.5 75.39 l -2 3.46" fill="none" stroke="#F5EFDC" stroke-width="0.6" stroke-linecap="round" stroke-linejoin="round"/><path d="M 51.74 71 l -3.46 2" fill="none" stroke="#F5EFDC" stroke-width="0.6" stroke-linecap="round" stroke-linejoin="round"/><path d="M 50 65 l -4 0" fill="none" stroke="#F5EFDC" stroke-width="0.6" stroke-linecap="round" stroke-linejoin="round"/><path d="M 51.74 59 l -3.46 -2" fill="none" stroke="#F5EFDC" stroke-width="0.6" stroke-linecap="round" stroke-linejoin="round"/><path d="M 56.5 54.61 l -2 -3.46" fill="none" stroke="#F5EFDC" stroke-width="0.6" stroke-linecap="round" stroke-linejoin="round"/><path d="M 63 53 l 0 -4" fill="none" stroke="#F5EFDC" stroke-width="0.6" stroke-linecap="round" stroke-linejoin="round"/><path d="M 69.5 54.61 l 2 -3.46" fill="none" stroke="#F5EFDC" stroke-width="0.6" stroke-linecap="round" stroke-linejoin="round"/><path d="M 74.26 59 l 3.46 -2" fill="none" stroke="#F5EFDC" stroke-width="0.6" stroke-linecap="round" stroke-linejoin="round"/></g></svg>
