<?xml version="1.0" encoding="UTF-8"?>
<svg xmlns="http://www.w3.org/2000/svg" width="96" height="96" viewBox="0 0 96 96"><g transform="translate(-1.50516 -9.558) rotate(0) scale(1.05611 1.05611)"><path d="M 27 63 L 16 76 Q 9 76 10 82 Q 12 89 19 86 Q 25 91 29 85 L 41 70 Z" fill="#FFF0D3" stroke="#AA7D5D" stroke-width="1.5" stroke-linecap="round" stroke-linejoin="round"/><path d="M 27 52 Q 26 34 46 23 Q 65 16 78 31 Q 91 49 75 62 Q 62 70 43 68 L 33 74 Z" fill="#EEC5A3" stroke="#AA7D5D" stroke-width="1.6" stroke-linecap="round" stroke-linejoin="round"/><path d="M 74 30 Q 85 48 66 58 Q 50 66 33 66 L 33 74 Q 62 70 75 62 Q 90 47 80 35 Z" fill="#D6A582" stroke="none" stroke-width="1.8" stroke-linecap="round" stroke-linejoin="round"/><path d="M 36 48 Q 38 33 53 29 M 37 54 L 39 57" fill="none" stroke="#FFE8CA" stroke-width="3" stroke-linecap="round" stroke-linejoin="round"/><path d="M 59.9 38 A 1.1 1.1 0 1 0 62.1 38 A 1.1 1.1 0 1 0 59.9 38 Z" fill="#C59A74" stroke="none" stroke-width="0" stroke-linecap="round" stroke-linejoin="round"/><path d="M 52.7 49 A 1.3 1.3 0 1 0 55.3 49 A 1.3 1.3 0 1 0 52.7 49 Z" fill="#C59A74" stroke="none" stroke-width="0" stroke-linecap="round" stroke-linejoin="round"/></g></svg>
